HIERARCHY
ROOT hips
{
  OFFSET 0 10.6860622 2.3727825e-15
  CHANNELS 6 Xposition Yposition Zposition Yrotation Xrotation Zrotation
  JOINT leftUpperLeg
  {
    OFFSET 0.6642549969 -0.9402397400000004 0
    CHANNELS 3 Yrotation Xrotation Zrotation
    JOINT leftLowerLeg
    {
      OFFSET 0 -3.997221335632195 0
      CHANNELS 3 Yrotation Xrotation Zrotation
      JOINT leftFoot
      {
        OFFSET -0.13777839790000004 -4.6145792000000005 -0.22186036399999998
        CHANNELS 3 Yrotation Xrotation Zrotation
        JOINT leftToes
        {
          OFFSET -0.03777410834999995 -0.9130806927000008 0.85230013
          CHANNELS 3 Yrotation Xrotation Zrotation
          End Site
          {
            OFFSET -0.03777410834999995 -0.9130806927000008 0.85230013
          }
        }
      }
    }
  }
  JOINT rightUpperLeg
  {
    OFFSET -0.6642778626 -0.9402397400000004 0
    CHANNELS 3 Yrotation Xrotation Zrotation
    JOINT rightLowerLeg
    {
      OFFSET 0 -3.997221452859387 0
      CHANNELS 3 Yrotation Xrotation Zrotation
      JOINT rightFoot
      {
        OFFSET 0.1377926176 -4.6145792000000005 -0.22185782299999995
        CHANNELS 3 Yrotation Xrotation Zrotation
        JOINT rightToes
        {
          OFFSET 0.037780746850000047 -0.9130806927000008 0.85230167
          CHANNELS 3 Yrotation Xrotation Zrotation
          End Site
          {
            OFFSET 0.037780746850000047 -0.9130806927000008 0.85230167
          }
        }
      }
    }
  }
  JOINT spine
  {
    OFFSET 0 0.13988381660000015 0
    CHANNELS 3 Yrotation Xrotation Zrotation
    JOINT chest
    {
      OFFSET 0 0.6191039003973773 0
      CHANNELS 3 Yrotation Xrotation Zrotation
      JOINT upperChest
      {
        OFFSET 0 0.9855186130586943 0
        CHANNELS 3 Yrotation Xrotation Zrotation
        JOINT leftShoulder
        {
          OFFSET 0.1807663869 1.5087829790000005 0
          CHANNELS 3 Yrotation Xrotation Zrotation
          JOINT leftUpperArm
          {
            OFFSET 0.5985063006419806 0 0
            CHANNELS 3 Yrotation Xrotation Zrotation
            JOINT leftLowerArm
            {
              OFFSET 2.2993332369501065 0 0
              CHANNELS 3 Yrotation Xrotation Zrotation
              JOINT leftHand
              {
                OFFSET 2.395047042602395 0 0
                CHANNELS 3 Yrotation Xrotation Zrotation
                JOINT leftIndexProximal
                {
                  OFFSET 0.5766295810000004 0.04556643899499946 0.17265095988184
                  CHANNELS 3 Yrotation Xrotation Zrotation
                  JOINT leftIndexIntermediate
                  {
                    OFFSET 0.2957229000000008 -0.019352197700001517 -0.007932640616999987
                    CHANNELS 3 Yrotation Xrotation Zrotation
                    JOINT leftIndexDistal
                    {
                      OFFSET 0.19008243099999922 -0.012484908149998475 -0.002786250786000012
                      CHANNELS 3 Yrotation Xrotation Zrotation
                      End Site
                      {
                        OFFSET 0.19008243099999922 -0.012484908149998475 -0.002786250786000012
                      }
                    }
                  }
                }
                JOINT leftMiddleProximal
                {
                  OFFSET 0.5834975091000001 0.0524350405149987 0.02204081888183999
                  CHANNELS 3 Yrotation Xrotation Zrotation
                  JOINT leftMiddleIntermediate
                  {
                    OFFSET 0.33880573540000003 -0.019871473270000717 -0.00000971183179999946
                    CHANNELS 3 Yrotation Xrotation Zrotation
                    JOINT leftMiddleDistal
                    {
                      OFFSET 0.20676022730000088 -0.012221336379999448 0.0001471936708000235
                      CHANNELS 3 Yrotation Xrotation Zrotation
                      End Site
                      {
                        OFFSET 0.20676022730000088 -0.012221336379999448 0.0001471936708000235
                      }
                    }
                  }
                }
                JOINT leftLittleProximal
                {
                  OFFSET 0.5344154683999995 -0.012880921405001189 -0.24414037221816004
                  CHANNELS 3 Yrotation Xrotation Zrotation
                  JOINT leftLittleIntermediate
                  {
                    OFFSET 0.21758961730000093 -0.011650919939999227 0.011893592810000034
                    CHANNELS 3 Yrotation Xrotation Zrotation
                    JOINT leftLittleDistal
                    {
                      OFFSET 0.1475273964999999 -0.008152365682999818 0.006001092492999946
                      CHANNELS 3 Yrotation Xrotation Zrotation
                      End Site
                      {
                        OFFSET 0.1475273964999999 -0.008152365682999818 0.006001092492999946
                      }
                    }
                  }
                }
                JOINT leftRingProximal
                {
                  OFFSET 0.5799399463000003 0.026911854694997794 -0.12150566991816003
                  CHANNELS 3 Yrotation Xrotation Zrotation
                  JOINT leftRingIntermediate
                  {
                    OFFSET 0.26167887460000006 -0.013480186499999602 0.010996293000000053
                    CHANNELS 3 Yrotation Xrotation Zrotation
                    JOINT leftRingDistal
                    {
                      OFFSET 0.17667108799999987 -0.008990287899999228 0.0055541023999999065
                      CHANNELS 3 Yrotation Xrotation Zrotation
                      End Site
                      {
                        OFFSET 0.17667108799999987 -0.008990287899999228 0.0055541023999999065
                      }
                    }
                  }
                }
                JOINT leftThumbProximal
                {
                  OFFSET 0.11018806699999972 -0.09448718900500053 0.17047963138184
                  CHANNELS 3 Yrotation Xrotation Zrotation
                  JOINT leftThumbIntermediate
                  {
                    OFFSET 0.31062601459999983 -0.08126270900000132 0.15443142000000007
                    CHANNELS 3 Yrotation Xrotation Zrotation
                    JOINT leftThumbDistal
                    {
                      OFFSET 0.21627175790000086 -0.08833193599999878 0.018771167799999988
                      CHANNELS 3 Yrotation Xrotation Zrotation
                      End Site
                      {
                        OFFSET 0.21627175790000086 -0.08833193599999878 0.018771167799999988
                      }
                    }
                  }
                }
              }
            }
          }
        }
        JOINT neck
        {
          OFFSET 0 1.5463305265074576 0
          CHANNELS 3 Yrotation Xrotation Zrotation
          JOINT head
          {
            OFFSET 0 0.8456443600000344 0
            CHANNELS 3 Yrotation Xrotation Zrotation
            JOINT leftEye
            {
              OFFSET 0.30408573140000006 0.5104519199999995 0.1276382305
              CHANNELS 3 Yrotation Xrotation Zrotation
              End Site
              {
                OFFSET 0.30408573140000006 0.5104519199999995 0.1276382305
              }
            }
            JOINT rightEye
            {
              OFFSET -0.30409491089999996 0.5104519199999995 0.1276379445
              CHANNELS 3 Yrotation Xrotation Zrotation
              End Site
              {
                OFFSET -0.30409491089999996 0.5104519199999995 0.1276379445
              }
            }
            JOINT jaw
            {
              OFFSET -3.155239131000001e-7 -0.11984121820000082 0.60178107
              CHANNELS 3 Yrotation Xrotation Zrotation
              End Site
              {
                OFFSET -3.155239131000001e-7 -0.11984121820000082 0.60178107
              }
            }
          }
        }
        JOINT rightShoulder
        {
          OFFSET -0.1807303465 1.5087829790000005 0
          CHANNELS 3 Yrotation Xrotation Zrotation
          JOINT rightUpperArm
          {
            OFFSET -0.5985063796536958 0 0
            CHANNELS 3 Yrotation Xrotation Zrotation
            JOINT rightLowerArm
            {
              OFFSET -2.2993322059002854 0 0
              CHANNELS 3 Yrotation Xrotation Zrotation
              JOINT rightHand
              {
                OFFSET -2.395045314457259 0 0
                CHANNELS 3 Yrotation Xrotation Zrotation
                JOINT rightIndexProximal
                {
                  OFFSET -0.5764487688300002 0.0441371204405987 0.17361932004999997
                  CHANNELS 3 Yrotation Xrotation Zrotation
                  JOINT rightIndexIntermediate
                  {
                    OFFSET -0.29573011380000047 -0.01934826376999843 -0.007698921482999974
                    CHANNELS 3 Yrotation Xrotation Zrotation
                    JOINT rightIndexDistal
                    {
                      OFFSET -0.19008373999999884 -0.012503266380000655 -0.0026365778999999897
                      CHANNELS 3 Yrotation Xrotation Zrotation
                      End Site
                      {
                        OFFSET -0.19008373999999884 -0.012503266380000655 -0.0026365778999999897
                      }
                    }
                  }
                }
                JOINT rightMiddleProximal
                {
                  OFFSET -0.5834852037300005 0.05211639405060153 0.02307162440000001
                  CHANNELS 3 Yrotation Xrotation Zrotation
                  JOINT rightMiddleIntermediate
                  {
                    OFFSET -0.33880114510000003 -0.019952774050000954 0.0002455003561999819
                    CHANNELS 3 Yrotation Xrotation Zrotation
                    JOINT rightMiddleDistal
                    {
                      OFFSET -0.20675694929999955 -0.012273788999999091 0.00030209124000002766
                      CHANNELS 3 Yrotation Xrotation Zrotation
                      End Site
                      {
                        OFFSET -0.20675694929999955 -0.012273788999999091 0.00030209124000002766
                      }
                    }
                  }
                }
                JOINT rightLittleProximal
                {
                  OFFSET -0.5346811737299992 -0.011214256288399227 -0.24363941305000003
                  CHANNELS 3 Yrotation Xrotation Zrotation
                  JOINT rightLittleIntermediate
                  {
                    OFFSET -0.21757715980000092 -0.011771559690000988 0.01201554387
                    CHANNELS 3 Yrotation Xrotation Zrotation
                    JOINT rightLittleDistal
                    {
                      OFFSET -0.1475201849000004 -0.00822055339600003 0.006082065407000015
                      CHANNELS 3 Yrotation Xrotation Zrotation
                      End Site
                      {
                        OFFSET -0.1475201849000004 -0.00822055339600003 0.006082065407000015
                      }
                    }
                  }
                }
                JOINT rightRingProximal
                {
                  OFFSET -0.5800810755299999 0.027657985680600072 -0.12066365025000003
                  CHANNELS 3 Yrotation Xrotation Zrotation
                  JOINT rightRingIntermediate
                  {
                    OFFSET -0.26166445029999974 -0.013623118409999302 0.011164098990000045
                    CHANNELS 3 Yrotation Xrotation Zrotation
                    JOINT rightRingDistal
                    {
                      OFFSET -0.17666387530000027 -0.009072900100000503 0.005668185599999959
                      CHANNELS 3 Yrotation Xrotation Zrotation
                      End Site
                      {
                        OFFSET -0.17666387530000027 -0.009072900100000503 0.005668185599999959
                      }
                    }
                  }
                }
                JOINT rightThumbProximal
                {
                  OFFSET -0.10997596379000074 -0.09577489355940072 0.16989765924999997
                  CHANNELS 3 Yrotation Xrotation Zrotation
                  JOINT rightThumbIntermediate
                  {
                    OFFSET -0.31036620999999986 -0.08229339117999834 0.15440884469999996
                    CHANNELS 3 Yrotation Xrotation Zrotation
                    JOINT rightThumbDistal
                    {
                      OFFSET -0.21631306399999906 -0.08825326400000111 0.018656797720000014
                      CHANNELS 3 Yrotation Xrotation Zrotation
                      End Site
                      {
                        OFFSET -0.21631306399999906 -0.08825326400000111 0.018656797720000014
                      }
                    }
                  }
                }
              }
            }
          }
        }
      }
    }
  }
}
MOTION
Frames: 8
Frame Time: 0.03333333333333333
0 11.682712981546562 0 0 0 0 0 0 -5.826343164929014 -0.3712483961610101 -3.6333298826370974 5.838118207697276 0 0 0 0 0 0 0 0 5.826343164929014 0.3712483961610101 -3.6333298826370974 -5.838118207697276 0 0 0 0 0 0 0 -4.610651315171937 0 0 3.0831277533083026 0 0 0 0 0 1.5275236235667615 0 0 0 0 0 0 0 0 0 0 0 0 0 0 0 0 0 0 0 0 0 0 0 0 0 0 0 0 0 0 0 0 0 0 0 0 0 0 0 0 0 0 0 0 0 0 0 0 0 0 0 0 0 0 0 0 1.5275236235667615 0 0 0 0 0 0 0 0 0 0 0 0 0 0 1.5275236235667615 0 0 0 0 0 0 0 0 0 0 0 0 0 0 0 0 0 0 0 0 0 0 0 0 0 0 0 0 0 0 0 0 0 0 0 0 0 0 0 0 0 0 0 0 0 0 0 0 0 0 0 0 0 0 0
-3.2577751806552744 -7.143564926039163 0.3974457426486194 0 27.99756014110938 0 0.11495976685895147 -74.445917678419 -0.31853504260872684 176.42169851142282 47.27614611491994 178.38725970327224 16.223374244984107 59.584332171495944 16.83070676255807 0 0 0 -0.41086906646282645 -74.45452944803947 0.5870149084755798 -176.41763201101605 47.29341403034233 -178.4706511105551 -16.622460781685813 60.148155944873594 -17.149649450455 0 0 0 -0.5577479330784075 71.40706434612532 0.5834746134299653 -0.676537454312599 8.332435558900595 10.874379825962572 0 0 0 66.08279435590741 4.183501333762803 -56.60943068096349 -11.904415874931237 9.077386295974236 -44.12647360125488 16.285241395229612 9.68018823956288 -25.0128845677219 2.1537108620300316 7.86190998098455 11.887249405182297 0 0 0 0 0 0 0 0 0 0 0 0 0 0 0 0 0 0 0 0 0 0 0 0 0 0 0 0 0 0 0 0 0 0 0 0 0 0 0 0 0 0 0 0 0 -2.0858265486430474 18.065868870872162 7.619652015928799 -19.2680129999695 -20.52140205228779 6.984977940665205 0 0 0 0 0 0 0 0 0 -60.690659082895166 -10.569056815078847 46.290684601081956 14.397401439044542 5.984964055720895 44.46620510093201 -22.11477294458605 13.290541509247756 37.29029117518137 7.929507325182105 5.50144263010053 -27.786137946426358 0 0 0 0 0 0 0 0 0 0 0 0 0 0 0 0 0 0 0 0 0 0 0 0 0 0 0 0 0 0 0 0 0 0 0 0 0 0 0 0 0 0 0 0 0
-3.2577751806552744 -7.143564926039163 0.3974457426486194 0 27.997562074982536 0 0.11495976685895147 -74.445917678419 -0.31853404763452414 176.42169851142282 47.27614611491994 178.38725970327224 16.223374244984107 59.584332171495944 16.83070676255807 0 0 0 -0.41086906646282645 -74.45452944803947 0.5870149084755798 -176.41763201101605 47.29341403034233 -178.4706511105551 -16.622462425242027 60.148155944873594 -17.149653739936415 0 0 0 -0.5577479330784075 71.40706434612532 0.5834746134299653 -0.6765375082389838 8.332436421782905 10.874380673350235 0 0 0 66.08280652293901 4.183501333762803 -56.60944777049661 -11.90441828034389 9.077387160576023 -44.12647360125488 16.285241395229612 9.68018823956288 -25.0128845677219 2.153711077346504 7.86190998098455 11.887250248574018 0 0 0 0 0 0 0 0 0 0 0 0 0 0 0 0 0 0 0 0 0 0 0 0 0 0 0 0 0 0 0 0 0 0 0 0 0 0 0 0 0 0 0 0 0 -2.095349982889219 17.99948700466624 6.1420962704611295 -19.41262153514457 -21.59241857290887 7.387640730756557 0 0 0 0 0 0 0 0 0 -60.69066059755533 -10.569059420603695 46.2906871123036 14.397402270537189 5.984964484947306 44.46620510093201 -22.11477294458605 13.290541509247756 37.29029117518137 7.929508174705516 5.501443487825041 -27.786139464073436 0 0 0 0 0 0 0 0 0 0 0 0 0 0 0 0 0 0 0 0 0 0 0 0 0 0 0 0 0 0 0 0 0 0 0 0 0 0 0 0 0 0 0 0 0
-3.2577751806552744 -7.143564926039163 0.3974457426486194 0 27.99755820723626 0 0.11495976685895147 -74.445917678419 -0.31853504260872684 176.42169851142282 47.27614611491994 178.38725970327224 16.223374244984107 59.584332171495944 16.83070676255807 0 0 0 -0.4108727747058137 -74.45452944803947 0.5870194876598854 -176.41763201101605 47.29341403034233 -178.47065000949758 -16.622460781685813 60.148155944873594 -17.149649450455 0 0 0 -0.5577479330784075 71.40706434612532 0.5834746134299653 -0.676537454312599 8.332435558900595 10.874378978574903 0 0 0 66.08278201201483 4.183501761790095 -56.60941833493733 -11.904415874931237 9.077386295974236 -44.12647360125488 16.285241395229612 9.68018823956288 -25.0128845677219 2.1537095701311975 7.861909119109813 11.887247851652665 0 0 0 0 0 0 0 0 0 0 0 0 0 0 0 0 0 0 0 0 0 0 0 0 0 0 0 0 0 0 0 0 0 0 0 0 0 0 0 0 0 0 0 0 0 -2.103084185021102 17.932720916782706 4.661382992723938 -19.566722151428408 -22.664041174228085 7.79691388213442 0 0 0 0 0 0 0 0 0 -60.690646593684676 -10.569055946570568 46.29067968930373 14.397401439044542 5.984964484947306 44.466207506277215 -22.11477294458605 13.290541509247756 37.29029117518137 7.929507325182105 5.501442201238276 -27.786136428779244 0 0 0 0 0 0 0 0 0 0 0 0 0 0 0 0 0 0 0 0 0 0 0 0 0 0 0 0 0 0 0 0 0 0 0 0 0 0 0 0 0 0 0 0 0
-3.2577751806552744 -7.143564926039163 0.3974457426486194 0 27.99756014110938 0 0.11495976685895147 -74.445917678419 -0.31853504260872684 176.42169851142282 47.27614611491994 178.38725970327224 16.223374244984107 59.584332171495944 16.83070676255807 0 0 0 -0.41086906646282645 -74.45452944803947 0.5870149084755798 -176.41763201101605 47.29341403034233 -178.4706511105551 -16.622460781685813 60.148155944873594 -17.149649450455 0 0 0 -0.5577479330784075 71.40706434612532 0.5834746134299653 -0.676537454312599 8.332435558900595 10.874378978574903 0 0 0 66.08279279081319 4.183502617844678 -56.60943068096349 -11.904415874931237 9.077386295974236 -44.12647360125488 16.28524305794014 9.68018737345734 -25.0128845677219 2.1537108620300316 7.86190998098455 11.887249405182297 0 0 0 0 0 0 0 0 0 0 0 0 0 0 0 0 0 0 0 0 0 0 0 0 0 0 0 0 0 0 0 0 0 0 0 0 0 0 0 0 0 0 0 0 0 -2.109012180875912 17.865642714273335 3.177996552971346 -19.730640290234604 -23.73598792652852 8.21316774027667 0 0 0 0 0 0 0 0 0 -60.69065132362994 -10.56905420955402 46.29067968930373 14.397401439044542 5.984964055720895 44.46620510093201 -22.11477294458605 13.290541509247756 37.29029117518137 7.929507325182105 5.501442201238276 -27.786136428779244 0 0 0 0 0 0 0 0 0 0 0 0 0 0 0 0 0 0 0 0 0 0 0 0 0 0 0 0 0 0 0 0 0 0 0 0 0 0 0 0 0 0 0 0 0
-3.2577751806552744 -7.143564926039163 0.3974457426486194 0 27.997562074982536 0 0.11495976685895147 -74.445917678419 -0.31853404763452414 176.42169851142282 47.27614611491994 178.38725970327224 16.223374244984107 59.584332171495944 16.83070676255807 0 0 0 -0.4108727747058137 -74.45452944803947 0.587018492185037 -176.41763201101605 47.29341403034233 -178.4706511105551 -16.622460781685813 60.148155944873594 -17.149649450455 0 0 0 -0.5577479330784075 71.40706434612532 0.5834746134299653 -0.676537454312599 8.332435558900595 10.874379825962572 0 0 0 66.08279435590741 4.183501333762803 -56.60943068096349 -11.90441828034389 9.077388025177815 -44.12647360125488 16.285241395229612 9.68018823956288 -25.0128845677219 2.1537108620300316 7.86190998098455 11.887249405182297 0 0 0 0 0 0 0 0 0 0 0 0 0 0 0 0 0 0 0 0 0 0 0 0 0 0 0 0 0 0 0 0 0 0 0 0 0 0 0 0 0 0 0 0 0 -2.113118263747316 17.79831722081727 1.6924236449229002 -19.904713884087673 -24.80796566372194 8.636785220232825 0 0 0 0 0 0 0 0 0 -60.69066211221554 -10.569057683587127 46.2906871123036 14.397402270537189 5.984964484947306 44.46620510093201 -22.11477294458605 13.290541509247756 37.29029117518137 7.929507325182105 5.50144263010053 -27.786137946426358 0 0 0 0 0 0 0 0 0 0 0 0 0 0 0 0 0 0 0 0 0 0 0 0 0 0 0 0 0 0 0 0 0 0 0 0 0 0 0 0 0 0 0 0 0
-3.2577751806552744 -7.143564926039163 0.3974457426486194 0 27.99756014110938 0 0.11495976685895147 -74.445917678419 -0.31853504260872684 176.42169851142282 47.27614611491994 178.38725970327224 16.223374244984107 59.584332171495944 16.83070676255807 0 0 0 -0.41086906646282645 -74.45452944803947 0.5870149084755798 -176.41763201101605 47.29341403034233 -178.47065000949758 -16.622460781685813 60.148155944873594 -17.149649450455 0 0 0 -0.5577479330784075 71.40706434612532 0.5834746134299653 -0.676537454312599 8.332436421782905 10.874379825962572 0 0 0 66.08280043942331 4.183501333762803 -56.609438283482476 -11.904415874931237 9.077386295974236 -44.12647360125488 16.285241395229612 9.68018823956288 -25.0128845677219 2.1537108620300316 7.86190998098455 11.887249405182297 0 0 0 0 0 0 0 0 0 0 0 0 0 0 0 0 0 0 0 0 0 0 0 0 0 0 0 0 0 0 0 0 0 0 0 0 0 0 0 0 0 0 0 0 0 -2.115390644166266 17.73080916112243 0.20515339153077747 -20.089307291459473 -25.879685413606197 9.068177548961597 0 0 0 0 0 0 0 0 0 -60.69066211221554 -10.569057683587127 46.2906871123036 14.397401439044542 5.984964055720895 44.46620510093201 -22.11477294458605 13.290541509247756 37.29029117518137 7.929507325182105 5.50144263010053 -27.786137946426358 0 0 0 0 0 0 0 0 0 0 0 0 0 0 0 0 0 0 0 0 0 0 0 0 0 0 0 0 0 0 0 0 0 0 0 0 0 0 0 0 0 0 0 0 0
-3.2577751806552744 -7.143564926039163 0.3974457426486194 0 27.99756014110938 0 0.11495976685895147 -74.445917678419 -0.31853504260872684 176.42169851142282 47.27614611491994 178.38725970327224 16.223374244984107 59.584332171495944 16.83070676255807 0 0 0 -0.41086906646282645 -74.45452944803947 0.5870149084755798 -176.41763201101605 47.29341403034233 -178.4706511105551 -16.622460781685813 60.148155944873594 -17.149649450455 0 0 0 -0.5577479330784075 71.40706434612532 0.5834746134299653 -0.676537454312599 8.332435558900595 10.874379825962572 0 0 0 66.08278966062488 4.183500049680932 -56.60943068096349 -11.904415874931237 9.077386295974236 -44.12647360125488 16.285241395229612 9.68018823956288 -25.0128845677219 2.1537095701311975 7.861909119109813 11.887247851652665 0 0 0 0 0 0 0 0 0 0 0 0 0 0 0 0 0 0 0 0 0 0 0 0 0 0 0 0 0 0 0 0 0 0 0 0 0 0 0 0 0 0 0 0 0 -2.1158222530931265 17.663188537297124 -1.283313596638783 -20.284809634387702 -26.95084609193822 9.507772213858448 0 0 0 0 0 0 0 0 0 -60.69065283828998 -10.569057683587127 46.290684601081956 14.397401439044542 5.984964055720895 44.46620510093201 -22.114771319125307 13.290541509247756 37.290289049193404 7.929507325182105 5.501442201238276 -27.786136428779244 0 0 0 0 0 0 0 0 0 0 0 0 0 0 0 0 0 0 0 0 0 0 0 0 0 0 0 0 0 0 0 0 0 0 0 0 0 0 0 0 0 0 0 0 0
